<svg xmlns="http://www.w3.org/2000/svg" width="64" height="64" viewBox="0 0 16.933332 16.933334"><defs><linearGradient id="a"><stop offset="0" stop-color="#809f80" stop-opacity=".49803922"/><stop offset="1" stop-color="#ff02d1" stop-opacity="0"/></linearGradient></defs><g fill="#00aee9" transform="translate(-22.2128657 -238.798828) scale(.93445)"><path d="M24.54856298 257.81493295c-.27388469 0-.4943942.22050952-.4943942.4943942v12.60207458c0 .27388477.22050951.49439426.4943942.49439426h3.54149921c.27388478 0 .49439427-.22050949.49439427-.49439426v-.99321234c0-.27388477-.2205095-.49439426-.49439426-.49439426h-2.05389256v-9.62686132h2.05389256c.27388477 0 .49439426-.22050949.49439426-.49439426v-.9932124c0-.27388468-.2205095-.4943942-.49439426-.4943942h-3.54149922z"/><rect ry=".51549578" transform="matrix(1 0 -.2671 .96367 0 0)" y="265.47775" x="104.7504" height="18.216675" width="2.4639277"/><path d="M37.5731395 257.81493153c-.27388477 0-.49439426.22050952-.49439426.4943942v.9932124c0 .27388478.2205095.49439426.49439426.49439426h2.05389256v9.62686132H37.5731395c-.27388477 0-.49439426.2205095-.49439426.49439426v.99321234c0 .27388478.2205095.49439426.49439426.49439426h3.54149916c.27388478 0 .49439426-.22050948.49439426-.49439426v-12.60207458c0-.27388468-.22050948-.4943942-.49439426-.4943942H37.5731395z"/></g></svg>